<svg xmlns="http://www.w3.org/2000/svg" data-name="Layer 1" viewBox="0 0 512 512"><polyline fill="#fddd5a" points="282 459.532 422.94 459.532 422.94 504.5 504.5 422.94 422.94 341.379 422.94 386.348 282 386.348"/><polygon fill="#fed030" points="422.94 341.379 422.94 371.379 474.5 422.94 422.94 474.5 422.94 504.5 504.5 422.94 422.94 341.379"/><polyline fill="#fddd5a" points="231 125.652 89.06 125.652 89.06 170.621 7.5 89.06 89.06 7.5 89.06 52.468 231 52.468"/><circle cx="256" cy="256" r="155" fill="#fff"/><path fill="#e1e1e3" d="M256.00006,101a156.24149,156.24149,0,0,0-22.5,1.63135,155.012,155.012,0,0,1,0,306.7373A155.00482,155.00482,0,1,0,256.00006,101Z"/><path fill="#8b8893" d="M256.00006,418.5c-89.60254,0-162.5-72.89746-162.5-162.5s72.89746-162.5,162.5-162.5,162.5,72.89746,162.5,162.5S345.6026,418.5,256.00006,418.5Zm0-310c-81.332,0-147.5,66.16846-147.5,147.5s66.168,147.5,147.5,147.5,147.5-66.16846,147.5-147.5S337.33209,108.5,256.00006,108.5Z"/><path fill="#aeadb3" d="M178.18074,207.315l71.25281-62.03635a10,10,0,0,1,13.1329,0L333.81926,207.315Z"/><path fill="#8b8893" d="M262.56647,145.27863a9.99985,9.99985,0,0,0-13.13281,0l-8.4336,7.34265L303.8194,207.315h30Z"/><path fill="#aeadb3" d="M256.00006 331.5a7.49974 7.49974 0 0 1-7.5-7.5V222.5a7.5 7.5 0 0 1 15 0V324A7.49974 7.49974 0 0 1 256.00006 331.5zM316.00006 331.5a7.49974 7.49974 0 0 1-7.5-7.5V222.5a7.5 7.5 0 0 1 15 0V324A7.49974 7.49974 0 0 1 316.00006 331.5zM196.00006 331.5a7.49974 7.49974 0 0 1-7.5-7.5V222.5a7.5 7.5 0 0 1 15 0V324A7.49974 7.49974 0 0 1 196.00006 331.5zM226.00006 331.5a7.49974 7.49974 0 0 1-7.5-7.5V222.5a7.5 7.5 0 0 1 15 0V324A7.49974 7.49974 0 0 1 226.00006 331.5zM286.00006 331.5a7.49974 7.49974 0 0 1-7.5-7.5V222.5a7.5 7.5 0 0 1 15 0V324A7.49974 7.49974 0 0 1 286.00006 331.5z"/><path fill="#8b8893" d="M178.18074,207.315H333.81926a0,0,0,0,1,0,0v20a10,10,0,0,1-10,10H188.18074a10,10,0,0,1-10-10v-20A0,0,0,0,1,178.18074,207.315Z"/><path fill="#787681" d="M303.8194,207.315v20a10.00011,10.00011,0,0,1-10,10h30a10.00011,10.00011,0,0,0,10-10v-20Z"/><path fill="#8b8893" d="M333.81926,340.03272H178.18074l7.77786-23.181a10,10,0,0,1,9.48058-6.819H316.56082a10,10,0,0,1,9.48058,6.819Z"/><path fill="#787681" d="M326.04132,316.85175a9.99985,9.99985,0,0,0-9.48047-6.819h-30a9.99985,9.99985,0,0,1,9.48047,6.819l7.77808,23.181h30Z"/><circle cx="256" cy="180" r="7.5" fill="#fff"/></svg>