<svg xmlns="http://www.w3.org/2000/svg" data-name="Layer 1" viewBox="0 0 512 512"><path fill="#17a454" d="M263.3272,510.10857l-.14338.01826c-4.9851.63506-10.05123,1.117-15.05829,1.433a7.49956,7.49956,0,1,1-.94514-14.96932c4.69059-.29629,9.43714-.74837,14.10789-1.34338l.14337-.01826a7.5,7.5,0,0,1,1.89555,14.87975Zm29.0222-5.63753a7.50058,7.50058,0,0,1-2.84523-14.69576c4.6028-1.20951,9.21406-2.58451,13.70583-4.086a7.49992,7.49992,0,0,1,4.75577,14.226c-4.80149,1.605-9.73,3.07454-14.64851,4.36758A7.63282,7.63282,0,0,1,292.3494,504.471Zm-73.31327,6.97478a7.51809,7.51809,0,0,1-1.46433.04281c-5.05754-.34312-10.17521-.86071-15.21027-1.53748a7.4997,7.4997,0,1,1,1.99778-14.86577c4.71046.63247,9.498,1.11631,14.2289,1.438a7.50047,7.50047,0,0,1,.44792,14.9224ZM333.9076,489.042a7.50152,7.50152,0,0,1-4.23918-14.1815c4.25265-2.07651,8.49713-4.32525,12.61684-6.6841a7.49952,7.49952,0,1,1,7.45359,13.01595c-4.40312,2.522-8.94086,4.92618-13.48713,7.14741A7.50144,7.50144,0,0,1,333.9076,489.042ZM175.29791,504.08981a7.46738,7.46738,0,0,1-2.9141-.20567c-4.90676-1.335-9.82909-2.85008-14.63074-4.50363a7.49966,7.49966,0,1,1,4.88369-14.182c4.49071,1.54647,9.09533,2.96325,13.685,4.2126a7.501,7.501,0,0,1-1.02387,14.67871Zm196.29481-38.30712a7.501,7.501,0,0,1-5.50265-13.40428c3.77315-2.87682,7.50049-5.91616,11.07842-9.0349a7.50012,7.50012,0,0,1,9.85567,11.30809c-3.82393,3.3322-7.80672,6.5803-11.83814,9.65541A7.46885,7.46885,0,0,1,371.59272,465.78269ZM133.85166,488.28856a7.46959,7.46959,0,0,1-4.28819-.72957c-4.54145-2.26555-9.06831-4.71017-13.456-7.268a7.50016,7.50016,0,0,1,7.55478-12.959c4.107,2.39473,8.34475,4.68322,12.59539,6.80271a7.50114,7.50114,0,0,1-2.406,14.15383Zm270.17583-52.68741a7.49976,7.49976,0,0,1-6.57144-12.40476c3.1464-3.56191,6.21492-7.2714,9.12115-11.02619a7.50024,7.50024,0,1,1,11.86187,9.18206c-3.10367,4.00931-6.38116,7.97185-9.7415,11.77464A7.47267,7.47267,0,0,1,404.02749,435.60115ZM96.30212,464.72269a7.474,7.474,0,0,1-5.53449-1.506c-4.00972-3.0992-7.97335-6.37359-11.78092-9.73284a7.49979,7.49979,0,1,1,9.92274-11.2484c3.56566,3.14493,7.27733,6.21122,11.03162,9.11357a7.5,7.5,0,0,1-3.63895,13.37371Zm333.69256-65.04254a7.5,7.5,0,0,1-7.41946-11.2217c2.39691-4.10534,4.6885-8.342,6.81059-12.59148a7.50039,7.50039,0,0,1,13.41956,6.70363c-2.26786,4.53879-4.7155,9.065-7.27612,13.45015A7.48643,7.48643,0,0,1,429.99468,399.68015ZM64.05138,434.33289a7.49408,7.49408,0,0,1-6.60581-2.50858c-3.33493-3.8221-6.5858-7.80356-9.662-11.83188a7.50031,7.50031,0,0,1,11.92277-9.10309c2.87791,3.77006,5.92,7.49558,9.04149,11.07217a7.50171,7.50171,0,0,1-4.69645,12.37138Zm384.44671-74.94881a7.50389,7.50389,0,0,1-8.03226-9.88846c1.54908-4.48956,2.969-9.09262,4.22134-13.6822a7.49993,7.49993,0,0,1,14.47124,3.94706c-1.33842,4.90671-2.85705,9.82851-4.51248,14.627A7.50117,7.50117,0,0,1,448.49809,359.38408Zm-410.16,38.88071a7.50232,7.50232,0,0,1-7.45628-3.70956c-2.52084-4.3944-4.92828-8.93025-7.15563-13.48215a7.49992,7.49992,0,1,1,13.47306-6.59333c2.08361,4.25814,4.33567,8.5017,6.69329,12.61172a7.50451,7.50451,0,0,1-5.55444,11.17332ZM458.76556,316.225a7.50634,7.50634,0,0,1-8.38546-8.44554c.636-4.706,1.12281-9.49338,1.44768-14.22668a7.49973,7.49973,0,1,1,14.96438,1.02538c-.34662,5.06094-.86718,10.17849-1.54686,15.21A7.50321,7.50321,0,0,1,458.76556,316.225ZM20.1844,357.85306a7.50173,7.50173,0,0,1-8.05166-5.06019c-1.61081-4.80862-3.08321-9.73628-4.37666-14.64637a7.50014,7.50014,0,0,1,14.50554-3.82072c1.20985,4.5939,2.58727,9.20485,4.09415,13.70381a7.50513,7.50513,0,0,1-6.17137,9.82347Zm440.16775-85.923c-.16129.02054-.32369.03631-.48828.04645a7.5,7.5,0,0,1-7.95222-7.01913c-.29493-4.73014-.74942-9.52265-1.351-14.24523l-.07193-.5569a7.50029,7.50029,0,0,1,6.47087-8.40364l.01937-.00247a7.50009,7.50009,0,0,1,8.38482,6.47376l.07427.5753c.64444,5.05873,1.12985,10.17513,1.44455,15.22663A7.49981,7.49981,0,0,1,460.35215,271.93011ZM10.29741,314.64968a7.49975,7.49975,0,0,1-8.38765-6.4921l-.03653-.28675c-.63012-4.94635-1.10875-9.96319-1.42309-14.91138a7.4999,7.4999,0,1,1,14.96967-.95011c.29446,4.63373.74291,9.3325,1.33317,13.96595l.03653.28675A7.49975,7.49975,0,0,1,10.29741,314.64968ZM8.94033,270.34982A7.50476,7.50476,0,0,1,.50118,262.4063c.341-5.06613.85518-10.18385,1.528-15.21152A7.50025,7.50025,0,0,1,16.897,249.18542c-.63006,4.70228-1.11094,9.4899-1.42974,14.22833A7.50247,7.50247,0,0,1,8.94033,270.34982Zm7.31933-43.72863a7.505,7.505,0,0,1-8.1835-9.4065c1.33069-4.90179,2.84216-9.82562,4.49358-14.63242a7.49992,7.49992,0,1,1,14.18647,4.8723c-1.5447,4.49688-2.95881,9.10313-4.20327,13.68876A7.50334,7.50334,0,0,1,16.25966,226.62119ZM32.03,185.16805a7.5009,7.5009,0,0,1-7.65511-10.78412c2.26227-4.544,4.70458-9.0735,7.2595-13.46083a7.5,7.5,0,0,1,12.963,7.54738c-2.39134,4.1066-4.67722,8.34546-6.79447,12.59828A7.49152,7.49152,0,0,1,32.03,185.16805Zm23.54681-37.57172a7.49976,7.49976,0,0,1-6.885-12.02222c3.1016-4.01791,6.37411-7.98474,9.72742-11.7886a7.49973,7.49973,0,1,1,11.25312,9.91721c-3.13949,3.562-6.20317,7.27483-9.10611,11.03609A7.47445,7.47445,0,0,1,55.57681,147.59633Zm30.37647-32.27809A7.50068,7.50068,0,0,1,80.06412,102.23c3.81592-3.33316,7.79411-6.58657,11.82466-9.66847a7.4998,7.4998,0,1,1,9.11191,11.91475c-3.77253,2.88561-7.49622,5.93039-11.06761,9.05027A7.46882,7.46882,0,0,1,85.95328,115.31824ZM122.002,89.58776a7.50151,7.50151,0,0,1-4.68655-13.94534c4.39863-2.5263,8.93368-4.93609,13.47874-7.16307a7.49964,7.49964,0,1,1,6.59974,13.46929c-4.25081,2.08317-8.49262,4.33747-12.60722,6.70158A7.47769,7.47769,0,0,1,122.002,89.58776ZM264.61948,61.57112a7.499,7.499,0,0,1-1.94266-.00651c-4.70173-.6257-9.48947-1.10361-14.231-1.42a7.50007,7.50007,0,0,1,.99848-14.96687c5.0677.33789,10.186.84851,15.21216,1.51755a7.50127,7.50127,0,0,1-.03694,14.87587Zm-102.22788,9.848a7.50037,7.50037,0,0,1-3.3265-14.55175c4.80861-1.61475,9.73493-3.08993,14.64217-4.38647a7.50036,7.50036,0,0,1,3.83125,14.50321c-4.59214,1.21209-9.20169,2.59278-13.7007,4.10311A7.48648,7.48648,0,0,1,162.3916,71.41914Zm57.93486-11.35067c-.15645.01993-.314.03508-.47363.04557-4.58884.29515-9.24117.74113-13.82764,1.3254l-.43047.05583a7.5,7.5,0,0,1-1.89555-14.87975l.38059-.04947c4.9449-.62994,9.91088-1.106,14.81025-1.421a7.5,7.5,0,0,1,1.43645,14.92346Z"/><circle cx="233.657" cy="278.343" r="168.936" fill="#fed947"/><path fill="#fecc30" d="M233.65674,109.40674a169.75042,169.75042,0,0,0-22.5,1.502c82.55267,11.03589,146.4364,81.91065,146.4364,167.43433,0,85.52392-63.88373,156.39868-146.4364,167.43457a169.70986,169.70986,0,0,0,22.5,1.502c93.152,0,168.9364-75.78442,168.9364-168.93652C402.59314,185.19141,326.80872,109.40674,233.65674,109.40674Z"/><path fill="#f8be32" d="M233.65674,454.7793c-97.2876,0-176.43653-79.14942-176.43653-176.43653s79.14893-176.43554,176.43653-176.43554,176.43652,79.14843,176.43652,176.43554S330.94434,454.7793,233.65674,454.7793Zm0-337.87207c-89.0166,0-161.43653,72.41992-161.43653,161.43554,0,89.01661,72.41993,161.43653,161.43653,161.43653s161.43652-72.41992,161.43652-161.43653C395.09326,189.32715,322.67334,116.90723,233.65674,116.90723Z"/><path fill="#fff" d="M280.71729 211.4834h-94.1211a7.5 7.5 0 0 1 0-15h94.1211a7.5 7.5 0 0 1 0 15zM280.71729 262.82227h-94.1211a7.5 7.5 0 1 1 0-15h94.1211a7.5 7.5 0 0 1 0 15z"/><path fill="#fff" d="M255.0293,384.93652a7.48066,7.48066,0,0,1-5.42432-2.31933l-68.15137-71.35157a7.49987,7.49987,0,0,1,2.6001-12.1289l.49756-.20215a7.503,7.503,0,0,1,2.82324-.55176h16.59766a43.44971,43.44971,0,0,0-.00147-86.89941H187.37451a7.5,7.5,0,0,1,0-15H203.9707a58.44948,58.44948,0,0,1,.24756,116.89844l56.2334,58.874a7.5,7.5,0,0,1-5.42236,12.68066Z"/><circle cx="401.04" cy="110.96" r="103.46" fill="#56bc8d"/><path fill="#24b378" d="M401.03986,7.5a104.29026,104.29026,0,0,0-14.99994,1.08643,103.468,103.468,0,0,1,0,204.74755A103.46331,103.46331,0,1,0,401.03986,7.5Z"/><path fill="#17a454" d="M401.04,221.91992A110.96,110.96,0,1,1,512,110.96,111.086,111.086,0,0,1,401.04,221.91992ZM401.04,15A95.96,95.96,0,1,0,497,110.96,96.06925,96.06925,0,0,0,401.04,15Z"/><path fill="#fff" d="M443.54 64.46h-85a7.5 7.5 0 0 1 0-15h85a7.5 7.5 0 1 1 0 15zM443.54 172.46h-85a7.5 7.5 0 0 1 0-15h85a7.5 7.5 0 0 1 0 15z"/><path fill="#fff" d="M401.04,118.46a7.49573,7.49573,0,0,1-3.74756-1.00391l-20.99756-12.11328A17.54838,17.54838,0,0,1,367.54,90.18457V56.96a7.49974,7.49974,0,0,1,7.5-7.5h52a7.49974,7.49974,0,0,1,7.5,7.5V90.18457a17.54719,17.54719,0,0,1-8.75488,15.1582h0l-20.99707,12.11328A7.49754,7.49754,0,0,1,401.04,118.46Zm-18.5-54V90.18457a2.50825,2.50825,0,0,0,1.251,2.166l17.249,9.95117,17.249-9.95117a2.50722,2.50722,0,0,0,1.251-2.166V64.46Zm39.49707,34.38672h0Z"/><path fill="#fff" d="M427.04,172.46h-52a7.49974,7.49974,0,0,1-7.5-7.5V131.73535a17.54646,17.54646,0,0,1,8.75537-15.1582L397.292,104.46387a7.50408,7.50408,0,0,1,7.4961,0l20.99707,12.11425A17.54325,17.54325,0,0,1,434.54,131.73535V164.96A7.49974,7.49974,0,0,1,427.04,172.46Zm-44.5-15h37V131.73535a2.50457,2.50457,0,0,0-1.24951-2.16406l-.00147-.001-17.249-9.95117-17.24951,9.95117a2.5062,2.5062,0,0,0-1.25049,2.165Z"/></svg>