<svg xmlns="http://www.w3.org/2000/svg" data-name="Layer 1" viewBox="0 0 512 512"><path fill="#8b8893" d="M504.5 107a7.50006 7.50006 0 0 1-7.5-7.5v-77a7.5082 7.5082 0 0 0-7.5-7.5h-77a7.5 7.5 0 0 1 0-15h77A22.52523 22.52523 0 0 1 512 22.5v77A7.50006 7.50006 0 0 1 504.5 107zM7.5 107A7.50006 7.50006 0 0 1 0 99.5v-77A22.52523 22.52523 0 0 1 22.5 0h77a7.5 7.5 0 0 1 0 15h-77A7.5082 7.5082 0 0 0 15 22.5v77A7.50006 7.50006 0 0 1 7.5 107zM489.5 512h-77a7.5 7.5 0 0 1 0-15h77a7.5082 7.5082 0 0 0 7.5-7.5v-77a7.5 7.5 0 0 1 15 0v77A22.52523 22.52523 0 0 1 489.5 512zM99.5 512h-77A22.52523 22.52523 0 0 1 0 489.5v-77a7.5 7.5 0 0 1 15 0v77a7.5082 7.5082 0 0 0 7.5 7.5h77a7.5 7.5 0 0 1 0 15z"/><rect width="137" height="137" x="82.5" y="82.5" fill="#c8c5cc" rx="30"/><rect width="47" height="47" x="127.5" y="127.5" fill="#8b8893" rx="5" transform="rotate(90 151 151)"/><rect width="137" height="137" x="292.5" y="82.5" fill="#c8c5cc" rx="30"/><rect width="47" height="47" x="337.5" y="127.5" fill="#8b8893" rx="5" transform="rotate(90 361 151)"/><rect width="15" height="15" x="362" y="285" fill="#8b8893" transform="rotate(90 369.5 292.5)"/><rect width="15" height="15" x="392" y="360" fill="#8b8893" transform="rotate(90 399.5 367.5)"/><rect width="15" height="15" x="347" y="360" fill="#8b8893" transform="rotate(90 354.5 367.5)"/><rect width="15" height="15" x="347" y="300" fill="#8b8893" transform="rotate(90 354.5 307.5)"/><rect width="15" height="15" x="248.5" y="212" fill="#8b8893" transform="rotate(90 256 219.5)"/><path fill="#8b8893" d="M429.5 436h-105a7.5 7.5 0 0 1 0-15H422V391h-4.5a7.5 7.5 0 0 1 0-15h12a7.50006 7.50006 0 0 1 7.5 7.5v45A7.50006 7.50006 0 0 1 429.5 436zM399.5 346h-77a7.5 7.5 0 0 1 0-15h77a7.5 7.5 0 0 1 0 15z"/><path fill="#8b8893" d="M384.5,406h-32a7.5,7.5,0,0,1,0-15h32a7.5,7.5,0,0,1,0,15Z"/><rect width="137" height="137" x="82.5" y="292.5" fill="#c8c5cc" rx="30"/><rect width="47" height="47" x="127.5" y="337.5" fill="#8b8893" rx="5" transform="rotate(90 151 361)"/><rect width="15" height="15" x="248.5" y="285" fill="#8b8893" transform="rotate(90 256 292.5)"/><path fill="#8b8893" d="M256,437a7.50006,7.50006,0,0,1-7.5-7.5v-92a7.5,7.5,0,0,1,15,0v92A7.50006,7.50006,0,0,1,256,437Z"/><rect width="15" height="15" x="285" y="421" fill="#8b8893" transform="rotate(90 292.5 428.5)"/><path fill="#8b8893" d="M292.5 392a7.50006 7.50006 0 0 1-7.5-7.5v-92a7.5 7.5 0 0 1 15 0v92A7.50006 7.50006 0 0 1 292.5 392zM324.5 406a7.50006 7.50006 0 0 1-7.5-7.5v-32a7.5 7.5 0 0 1 15 0v32A7.50006 7.50006 0 0 1 324.5 406zM429.5 347a7.50006 7.50006 0 0 1-7.5-7.5V300H400.46484a7.5 7.5 0 0 1 0-15H429.5a7.50006 7.50006 0 0 1 7.5 7.5v47A7.50006 7.50006 0 0 1 429.5 347zM256 197a7.50006 7.50006 0 0 1-7.5-7.5V90H238.752a7.5 7.5 0 1 1 0-15H256a7.50006 7.50006 0 0 1 7.5 7.5v107A7.50006 7.50006 0 0 1 256 197zM473.5 263.5H38.5a7.5 7.5 0 0 1 0-15h435a7.5 7.5 0 0 1 0 15z"/></svg>