<svg xmlns="http://www.w3.org/2000/svg" data-name="Layer 1" viewBox="0 0 512 512"><path fill="#eb304a" d="M426.02,88.16,314.18994,290.93,306.7,304.5H205l7.81006-13.57L263.5,202.89,376,7.5l44.96,44.96A29.99789,29.99789,0,0,1,426.02,88.16Z"/><path fill="#e4222e" d="M420.96,52.46,376,7.5,365.03833,26.53827,390.96,52.46A29.99789,29.99789,0,0,1,396.02,88.16L284.18994,290.93,276.7,304.5h30l7.49-13.57L426.02,88.16A29.99789,29.99789,0,0,0,420.96,52.46Z"/><polygon fill="#c0232c" points="182 87 330 87 376 7.5 136 7.5 182 87"/><polygon fill="#e4222e" points="314.19 290.93 306.7 304.5 220.3 304.5 212.81 290.93 263.5 202.89 314.19 290.93"/><path fill="#eb304a" d="M205.29986,304.5H307L136,7.5,91.04013,52.45986a30,30,0,0,0-5.05634,35.70151Z"/><path fill="#e1e1e3" d="M301.55464,359a7.49974,7.49974,0,0,1-7.5-7.5V312h-76.908v39.5a7.5,7.5,0,0,1-15,0v-47a7.49974,7.49974,0,0,1,7.5-7.5h91.908a7.49975,7.49975,0,0,1,7.5,7.5v47A7.49975,7.49975,0,0,1,301.55464,359Z"/><circle cx="256" cy="419.5" r="85" fill="#fddd5a"/><path fill="#fed030" d="M256,334.5a85.41328,85.41328,0,0,0-15,1.34644,84.98513,84.98513,0,0,1,0,167.30712A84.99433,84.99433,0,1,0,256,334.5Z"/><path fill="#f8be32" d="M256,512a92.5,92.5,0,1,1,92.5-92.5A92.6045,92.6045,0,0,1,256,512Zm0-170a77.5,77.5,0,1,0,77.5,77.5A77.58809,77.58809,0,0,0,256,342Z"/><path fill="#24b378" d="M243.55469,453.94531q-.16992,0-.33985-.00781a7.4965,7.4965,0,0,1-5.42187-2.69092l-25-30a7.5,7.5,0,1,1,11.52344-9.60254L244.05859,435.335l48.083-48.0835A7.50024,7.50024,0,0,1,302.749,397.85791L248.8584,451.74854A7.50243,7.50243,0,0,1,243.55469,453.94531Z"/></svg>