<svg xmlns="http://www.w3.org/2000/svg" data-name="Layer 1" viewBox="0 0 512 512"><path fill="#24b378" d="M256.00732,473.04346a217.01041,217.01041,0,0,1-53.11328-6.6001,7.50015,7.50015,0,0,1,3.67188-14.54395,201.94127,201.94127,0,0,0,54.28222,6.08594c53.56543-1.28369,103.66846-23.606,141.07862-62.854,37.41064-39.24854,57.30615-90.36328,56.022-143.9292a202.34024,202.34024,0,0,0-5.79639-43.437,7.50006,7.50006,0,1,1,14.56543-3.585,217.40078,217.40078,0,0,1,6.22705,46.66259c1.37989,57.57129-19.98535,112.48926-60.16015,154.6377s-94.00586,66.1206-151.57715,67.501Q258.60742,473.0437,256.00732,473.04346Z"/><path fill="#24b378" d="M441.09766,240.92285a7.50141,7.50141,0,0,1-6.28809-11.57812l18.103-27.95264a7.49994,7.49994,0,0,1,12.58984,8.1543l-18.103,27.95263A7.495,7.495,0,0,1,441.09766,240.92285Z"/><path fill="#24b378" d="M485.71289 233.126a7.46417 7.46417 0 0 1-4.53369-1.53028l-26.51074-20.15625a7.49977 7.49977 0 1 1 9.07812-11.94043l26.51074 20.15625a7.50038 7.50038 0 0 1-4.54443 13.47071zM59.43945 333.78027a7.46186 7.46186 0 0 1-3.749-1.00976L26.86426 316.09277A7.49991 7.49991 0 1 1 34.376 303.10938l28.82617 16.67773a7.501 7.501 0 0 1-3.7627 13.99316z"/><path fill="#24b378" d="M59.44092,333.78076a7.50355,7.50355,0,0,1-6.751-10.7583l14.46-30a7.50014,7.50014,0,0,1,13.5127,6.5127l-14.46,30A7.50108,7.50108,0,0,1,59.44092,333.78076Z"/><path fill="#24b378" d="M57.51465,330.05518a7.50231,7.50231,0,0,1-7.105-5.103A216.22929,216.22929,0,0,1,39.1626,247.40967C41.32129,189.8623,66.019,136.36035,108.707,96.75928c42.688-39.60157,97.88672-60.23145,155.4375-58.063a216.73731,216.73731,0,0,1,64.81494,12.47705,7.5,7.5,0,0,1-5.043,14.127A201.76987,201.76987,0,0,0,263.582,53.68555c-53.54053-2.00049-104.92285,17.19433-144.67334,54.07031C79.1582,144.63232,56.16064,194.42871,54.15186,247.97217A201.29192,201.29192,0,0,0,64.62158,320.1543a7.50532,7.50532,0,0,1-7.10693,9.90088Z"/><circle cx="256" cy="256" r="99.299" fill="#fed947"/><path fill="#fed030" d="M256,156.70123a100.07556,100.07556,0,0,0-15,1.12708,99.31321,99.31321,0,0,1,0,196.34338,99.3045,99.3045,0,1,0,15-197.47046Z"/><path fill="#f8be32" d="M256,362.79883A106.79883,106.79883,0,1,1,362.79883,256,106.91968,106.91968,0,0,1,256,362.79883Zm0-198.59766A91.79883,91.79883,0,1,0,347.79883,256,91.90265,91.90265,0,0,0,256,164.20117Z"/><path fill="#fff" d="M283.5 218.5h-55a7.5 7.5 0 0 1 0-15h55a7.5 7.5 0 0 1 0 15zM283.5 248.5h-55a7.5 7.5 0 0 1 0-15h55a7.5 7.5 0 0 1 0 15z"/><path fill="#fff" d="M268.501,320.37891a7.47734,7.47734,0,0,1-5.42432-2.31983l-40-41.8789A7.5,7.5,0,0,1,228.5,263.5h10a22.5,22.5,0,0,0,0-45h-10a7.5,7.5,0,0,1,0-15h10a37.50215,37.50215,0,0,1,6.92285,74.35938l28.50049,29.83935a7.5,7.5,0,0,1-5.42236,12.68018Z"/><path fill="#eb304a" d="M431.04539,176.40177h-62.1316a28.4546,28.4546,0,0,1-28.4546-28.45461v0a37.29492,37.29492,0,0,1,19.75425-32.91256l39.76615-21.19328,39.76615,21.19328A37.29493,37.29493,0,0,1,459.5,147.94711v0A28.45461,28.45461,0,0,1,431.04539,176.40177Z"/><path fill="#e4222e" d="M439.74579,115.03455l-39.76618-21.1933-15,7.9942,24.76618,13.1991A37.29492,37.29492,0,0,1,429.5,147.94708v.00006a28.4546,28.4546,0,0,1-28.45459,28.45459h30A28.4546,28.4546,0,0,0,459.5,147.94714v-.00006A37.29492,37.29492,0,0,0,439.74579,115.03455Z"/><path fill="#fbbf7d" d="M384.2641,80.15959h32.07629a2.22281,2.22281,0,0,1,2.22281,2.22281V98.64027a18.26094,18.26094,0,0,1-18.26094,18.26094h0a18.26094,18.26094,0,0,1-18.26094-18.26094V82.3824a2.22281,2.22281,0,0,1,2.22281-2.22281Z"/><path fill="#fdd8ae" d="M420.91,43.43l15,3.51v8.95a35.93,35.93,0,0,1-71.86,0v-8l15-4.46c0-19.84,1.09-20.93,20.93-20.93a35.80745,35.80745,0,0,1,25.4,10.52C431.89,39.53,420.91,33.51,420.91,43.43Z"/><path fill="#fbbf7d" d="M425.38,18.02a35.93745,35.93745,0,0,0-32.89917-9.73A35.94121,35.94121,0,0,1,420.91,43.43V55.89a35.94441,35.94441,0,0,1-28.43,35.1399A35.93588,35.93588,0,0,0,435.91,55.89V43.43A35.8158,35.8158,0,0,0,425.38,18.02Z"/><path fill="#787681" d="M435.91,43.43v3.51a52.6983,52.6983,0,0,1-31.46,2.09,49.5943,49.5943,0,0,1-13.6-5.73,23.54839,23.54839,0,0,1-26.8,4.59V43.43a35.93,35.93,0,0,1,71.86,0Z"/><path fill="#57565c" d="M425.38,18.02a35.91936,35.91936,0,0,0-41.40917-6.75415c.33624-.00928.67071-.02551,1.00921-.02551a35.93456,35.93456,0,0,1,35.93,35.93v3.1889a55.71773,55.71773,0,0,0,15-3.41919V43.43A35.8158,35.8158,0,0,0,425.38,18.02Z"/><path fill="#227fc0" d="M143.08621,504.37H80.95461A28.45461,28.45461,0,0,1,52.5,475.91534v0a37.29493,37.29493,0,0,1,19.75426-32.91256l39.76615-21.19327,39.76615,21.19327a37.29492,37.29492,0,0,1,19.75425,32.91256v0A28.4546,28.4546,0,0,1,143.08621,504.37Z"/><path fill="#2370b5" d="M151.78656,443.00275l-39.76611-21.1933-15,7.9942,24.76611,13.1991a37.29486,37.29486,0,0,1,19.75427,32.91253v.00006a28.4546,28.4546,0,0,1-28.45459,28.45459h30a28.4546,28.4546,0,0,0,28.45459-28.45459v-.00006A37.29486,37.29486,0,0,0,151.78656,443.00275Z"/><path fill="#fbbf7d" d="M130.6,410.35v16.26a17.46591,17.46591,0,0,1-.28,3.17,18.25669,18.25669,0,0,1-36.24-3.17V410.35a2.22136,2.22136,0,0,1,2.22-2.22h32.08A2.215,2.215,0,0,1,130.6,410.35Z"/><path fill="#fdd8ae" d="M132.95085,371.39817l15,3.51v8.95a35.93,35.93,0,0,1-71.86,0v-12.46c0-19.84,16.09-20.93,35.93006-20.93a35.80745,35.80745,0,0,1,25.4,10.52C143.93083,367.49815,132.95085,361.47819,132.95085,371.39817Z"/><path fill="#fbbf7d" d="M137.42084,345.9881a35.93745,35.93745,0,0,0-32.89917-9.73,35.94121,35.94121,0,0,1,28.4292,35.14007v12.46a35.94442,35.94442,0,0,1-28.43,35.1399,35.93589,35.93589,0,0,0,43.43-35.1399v-12.46A35.8158,35.8158,0,0,0,137.42084,345.9881Z"/><path fill="#787681" d="M147.95084,371.39819v3.51a52.69826,52.69826,0,0,1-31.46,2.09,49.5943,49.5943,0,0,1-13.6-5.73,36.25291,36.25291,0,0,1-26.8,4.59v-4.46a35.93,35.93,0,0,1,71.86005,0Z"/><path fill="#57565c" d="M137.42084,345.98816A35.945,35.945,0,0,0,96.515,338.98041c.16913-.00232.33625-.01282.50592-.01282a35.93458,35.93458,0,0,1,35.93,35.93v3.42981a55.71744,55.71744,0,0,0,15-3.41919v-3.51A35.8158,35.8158,0,0,0,137.42084,345.98816Z"/></svg>